<?xml version="1.0" encoding="iso-8859-1"?>
<!-- Generator: Adobe Illustrator 18.1.1, SVG Export Plug-In . SVG Version: 6.00 Build 0)  -->
<svg version="1.1" id="Capa_1" xmlns="http://www.w3.org/2000/svg" xmlns:xlink="http://www.w3.org/1999/xlink" x="0px" y="0px"
	 viewBox="0 0 24.318 24.318" style="enable-background:new 0 0 24.318 24.318;" xml:space="preserve">
<g>
	<g>
		<path style="fill:#090509;" d="M12.159,0.001C5.446,0.001,0,5.445,0,12.159c0,6.716,5.446,12.158,12.159,12.158
			c6.716,0,12.159-5.442,12.159-12.158C24.316,5.445,18.875,0.001,12.159,0.001z M12.159,22.259c-5.578,0-10.1-4.521-10.1-10.1
			c0-5.577,4.522-10.098,10.1-10.098c5.577,0,10.1,4.521,10.1,10.098C22.259,17.737,17.734,22.259,12.159,22.259z M13.939,12.365
			h3.035v4.252c-2.303-0.323-3.422,0.485-5.063,0.403c-7.695-0.365-6.083-11.324,2.227-9.925c0.539,0.092,1.401,0.504,2.06,0.886
			c0.006,0.353-0.013,0.712-0.031,1.342c-1.094-0.302-1.647-0.644-2.636-0.608c-4.117,0.158-4.941,7.003,0.203,6.279
			C14.133,14.449,13.855,13.226,13.939,12.365z"/>
	</g>
</g>
<g>
</g>
<g>
</g>
<g>
</g>
<g>
</g>
<g>
</g>
<g>
</g>
<g>
</g>
<g>
</g>
<g>
</g>
<g>
</g>
<g>
</g>
<g>
</g>
<g>
</g>
<g>
</g>
<g>
</g>
</svg>
